<svg enable-background="new 0 0 16 16" viewBox="0 0 16 16" xmlns="http://www.w3.org/2000/svg">
                    <path d="m14.259 2.75c-1.159-1.16-2.688-1.744-4.207-1.743-1.52-.001-3.049.583-4.208 1.743l-2.843 2.827v-2.57c0-.552-.448-1-1-1h-.016c-.552 0-.984.448-.984 1v5c0 .552.432.993.984.993h5.016c.552 0 1-.441 1-.993s-.448-1-1-1h-2.601l2.859-2.843c.774-.773 1.779-1.156 2.793-1.157 1.014.001 2.019.384 2.793 1.157.772.774 1.155 1.778 1.156 2.793-.001 1.014-.384 2.019-1.157 2.793l-4.543 4.543c-.391.391-.391 1.024 0 1.414.391.391 1.024.391 1.414 0l4.543-4.543c1.16-1.159 1.743-2.688 1.742-4.207.002-1.52-.582-3.048-1.741-4.207z" fill="#fff"/>
                    <path d="m0 0h16v16h-16z" fill="none"/>
                </svg>